# xmcd
#
# Track frame offsets:
#	150
#	19440
#	40715
#	53970
#	77215
#	94275
#	127932
#	144075
#	153645
#	170392
#	188762
#	208107
#	231345
#	253647
#	284812
#	317615
#
# Disc length: 4446 seconds
#
# Revision: 1
# Processed by: cddbd v1.5.2PL0 Copyright (c) Steve Scherf et al.
# Submitted via: audiograbber 1.83.01
#
DISCID=e4115c10
DTITLE=The Allman Brothers Band - a decade of hits 1969-79
DYEAR=1980
DGENRE=Blues
TTITLE0=Statesboro Blues
TTITLE1=Ramblin Man
TTITLE2=Midnight Rider
TTITLE3=Southbound
TTITLE4=Melissa
TTITLE5=Jessica
TTITLE6=Ain't wasting time no more
TTITLE7=Little Martha
TTITLE8=Crazy Love
TTITLE9=Revival
TTITLE10=Wasted Words
TTITLE11=Blue Sky
TTITLE12=One way out
TTITLE13=In memory of Elisabeth Reed
TTITLE14=Dreams
TTITLE15=Whipping Post
EXTD=
EXTT0=
EXTT1=
EXTT2=
EXTT3=
EXTT4=
EXTT5=
EXTT6=
EXTT7=
EXTT8=
EXTT9=
EXTT10=
EXTT11=
EXTT12=
EXTT13=
EXTT14=
EXTT15=
PLAYORDER=
